<?xml version="1.0" encoding="UTF-8"?>
<!DOCTYPE svg PUBLIC "-//W3C//DTD SVG 1.1//EN" "http://www.w3.org/Graphics/SVG/1.1/DTD/svg11.dtd">
<!-- Creator: CorelDRAW X5 -->
<svg xmlns="http://www.w3.org/2000/svg" xml:space="preserve" width="6.72in" height="6.72in" style="shape-rendering:geometricPrecision; text-rendering:geometricPrecision; image-rendering:optimizeQuality; fill-rule:evenodd; clip-rule:evenodd"
viewBox="0 0 6720 6720"
 xmlns:xlink="http://www.w3.org/1999/xlink">
 <defs>
  <style type="text/css">
   <![CDATA[
    .fil1 {fill:none}
    .fil0 {fill:black;fill-rule:nonzero}
   ]]>
  </style>
 </defs>
 <g id="Layer_x0020_1">
  <metadata id="CorelCorpID_0Corel-Layer"/>
  <g id="_375710288">
   <path class="fil0" d="M880 1925l4960 0c44,0 80,36 80,80l0 3247c0,44 -36,80 -80,80l-4960 0c-44,0 -80,-36 -80,-80l0 -3247c0,-44 36,-80 80,-80zm4880 160l-4800 0 0 3087 4800 0 0 -3087z"/>
   <path class="fil0" d="M2553 1388l1613 0c44,0 80,36 80,80l0 538c0,44 -36,80 -80,80l-1613 0c-44,0 -80,-36 -80,-80l0 -538c0,-44 36,-80 80,-80zm1533 160l-1453 0 0 378 1453 0 0 -378z"/>
   <path class="fil0" d="M5143 1703c0,-44 -36,-80 -80,-80 -44,0 -80,36 -80,80l0 311c0,44 36,80 80,80 44,0 80,-36 80,-80l0 -311z"/>
   <path class="fil0" d="M1737 1698c0,-44 -36,-80 -80,-80 -44,0 -80,36 -80,80l0 311c0,44 36,80 80,80 44,0 80,-36 80,-80l0 -311z"/>
   <path class="fil0" d="M1348 4425c-44,0 -80,36 -80,80 0,44 36,80 80,80l4024 0c44,0 80,-36 80,-80 0,-44 -36,-80 -80,-80l-4024 0z"/>
  </g>
 </g>
 <rect class="fil1" width="6720" height="6720"/>
</svg>
