<?xml version="1.0" encoding="UTF-8"?>
<svg viewBox="0 0 680 855" xmlns="http://www.w3.org/2000/svg" xmlns:xlink="http://www.w3.org/1999/xlink">
 <g fill="#fff">
  <g stroke="#030000">
   <path d="m49.223 5.7722v827.94h584.59c23.015 0 41.47-18.54 41.47-41.555v-744.82c0-23.015-18.455-41.555-41.47-41.555h-584.6z" stroke-width="3"/>
   <path d="m46.99 10.222v827.94h584.59c23.015 0 41.47-18.54 41.47-41.555v-744.82c0-23.015-18.455-41.555-41.47-41.555h-584.6z"/>
   <path d="m44.694 12.232v827.94h584.59c23.015 0 41.47-18.54 41.47-41.555v-744.82c0-23.015-18.455-41.555-41.47-41.555h-584.6z"/>
   <path d="m42.398 14.241v827.94h584.59c23.015 0 41.47-18.54 41.47-41.555v-744.82c0-23.015-18.455-41.555-41.47-41.555h-584.6z"/>
   <path d="m40.102 16.25v827.94h584.59c23.015 0 41.47-18.54 41.47-41.555v-744.82c0-23.015-18.455-41.555-41.47-41.555h-584.6z"/>
   <path d="m34.387 20.609v827.94h584.59c23.015 0 41.47-18.54 41.47-41.555v-744.83c0-23.015-18.455-41.555-41.47-41.555h-584.6z" stroke-linejoin="round" stroke-width="3"/>
  </g>
  <path id="a" d="m32.23 58.58c-16.179 0-29.287 7.1041-29.287 15.865 0 8.7607 13.108 15.865 29.287 15.865 14.178 0 26.014-5.4532 28.723-12.698h-6.0252c-2.602 5.4757-11.777 9.5319-22.698 9.5319-12.943 0-23.427-5.6898-23.427-12.698 0-7.0086 10.484-12.682 23.427-12.682 0.09293 0 0.18241-5.19e-4 0.27513 0v-3.1827c-0.092503-4.58e-4 -0.18236 0-0.27513 0z" fill="#fff" stroke="#000" stroke-linecap="round" stroke-width="5.484"/>
  <use y="25.137501" width="744.09448" height="1052.3622" xlink:href="#a"/>
  <use y="50.275002" width="744.09448" height="1052.3622" xlink:href="#a"/>
  <use y="75.412598" width="744.09448" height="1052.3622" xlink:href="#a"/>
  <use y="100.549988" width="744.09448" height="1052.3622" xlink:href="#a"/>
  <use y="125.687988" width="744.09448" height="1052.3622" xlink:href="#a"/>
  <use y="150.825012" width="744.09448" height="1052.3622" xlink:href="#a"/>
  <use y="175.963013" width="744.09448" height="1052.3622" xlink:href="#a"/>
  <use y="201.100006" width="744.09448" height="1052.3622" xlink:href="#a"/>
  <use y="226.238007" width="744.09448" height="1052.3622" xlink:href="#a"/>
  <use y="251.375" width="744.09448" height="1052.3622" xlink:href="#a"/>
  <use y="276.513" width="744.09448" height="1052.3622" xlink:href="#a"/>
  <use y="301.649994" width="744.09448" height="1052.3622" xlink:href="#a"/>
  <use y="326.788025" width="744.09448" height="1052.3622" xlink:href="#a"/>
  <use y="351.925964" width="744.09448" height="1052.3622" xlink:href="#a"/>
  <use y="377.062988" width="744.09448" height="1052.3622" xlink:href="#a"/>
  <use y="402.200989" width="744.09448" height="1052.3622" xlink:href="#a"/>
  <use y="427.338013" width="744.09448" height="1052.3622" xlink:href="#a"/>
  <use y="452.476013" width="744.09448" height="1052.3622" xlink:href="#a"/>
  <use y="477.612976" width="744.09448" height="1052.3622" xlink:href="#a"/>
  <use y="502.751038" width="744.09448" height="1052.3622" xlink:href="#a"/>
  <use y="527.888" width="744.09448" height="1052.3622" xlink:href="#a"/>
  <use y="553.026001" width="744.09448" height="1052.3622" xlink:href="#a"/>
  <use y="578.163025" width="744.09448" height="1052.3622" xlink:href="#a"/>
  <use y="628.439026" width="744.09448" height="1052.3622" xlink:href="#a"/>
  <use y="653.575989" width="744.09448" height="1052.3622" xlink:href="#a"/>
  <use y="603.301025" width="744.09448" height="1052.3622" xlink:href="#a"/>
  <use y="678.713989" width="744.09448" height="1052.3622" xlink:href="#a"/>
  <use y="703.851013" width="744.09448" height="1052.3622" xlink:href="#a"/>
  <use y="728.989014" width="744.09448" height="1052.3622" xlink:href="#a"/>
  <use y="754.125977" width="744.09448" height="1052.3622" xlink:href="#a"/>
  <g stroke="#000" stroke-linecap="round" stroke-width="5.484">
   <path d="m32.23 33.442c-16.179 0-29.287 7.1041-29.287 15.865 0 8.7607 13.108 15.865 29.287 15.865 14.178 0 26.014-5.4532 28.723-12.698h-6.0252c-2.602 5.4757-11.777 9.5319-22.698 9.5319-12.943 0-23.427-5.6898-23.427-12.698 0-7.0086 10.484-12.682 23.427-12.682 0.09293 0 0.18241-5.19e-4 0.27513 0v-3.1827c-0.092503-4.73e-4 -0.18236 0-0.27513 0z"/>
   <path d="m40.258 15.441c2.6955-1.419-5.8224-8.807-15.825-7.365s-21.49 11.713-21.49 16.094c0 8.76 13.108 15.864 29.287 15.864 14.178 0 26.014-5.453 28.723-12.698h-6.0253c-2.602 5.476-11.777 9.532-22.698 9.532-12.943 0-23.427-5.69-23.427-12.698 0-3.505 10.953-12.27 17.199-12.781 6.2458-0.51001 7.7845 7.234 14.256 7.234h0.2752v-3.182c0.0755 0.324-0.0144 0.33501-0.1118 0.259-0.0979-0.076004-0.2044-0.23799-0.1633-0.259h-9.9e-5z"/>
  </g>
  <rect x="212.41" y="234.29" width="275.96" height="157.27" rx="41.543" ry="41.543" stroke="#030000" stroke-linejoin="round" stroke-width="9.029"/>
 </g>
</svg>
