<?xml version="1.0" encoding="UTF-8"?>
<svg viewBox="0 0 157.97572 337.91672" xmlns="http://www.w3.org/2000/svg">
 <defs>
  <linearGradient id="a" x1="-644.89" x2="-560.58" y1="-262.49" y2="-260.21" gradientUnits="userSpaceOnUse">
   <stop offset="0"/>
   <stop stop-opacity="0" offset="1"/>
  </linearGradient>
 </defs>
 <g transform="matrix(.28576 .12385 -.12385 .28576 208.75 301.84)">
  <path d="m-627.91-653.38h111.43v742.86h-111.43z" fill="#1a1a1a"/>
  <path d="m-627.91 94.011h111.43l-20 171.43h-68.571z" fill="#1a1a1a"/>
  <path d="m-592.19 269.97h40l-16.719 102.86s-16.702-78.512-23.281-102.86z" fill="#1a1a1a"/>
  <path d="m-551.02-797.01c-15.668-13.971-29.383-10.355-42.348 0v137.93h42.348z" fill="#1a1a1a"/>
  <g transform="matrix(.75036 0 0 1 -591.84 -340.1)" fill="#1a1a1a">
   <path d="m146.57-312.35h28.515v285.15h-28.515z"/>
   <path transform="matrix(-.08788 -.65147 .43946 -.13027 362.83 169.19)" d="m472.53-405.97-83.215-17.132 56.445-63.5z"/>
  </g>
  <path transform="matrix(0,-1,-1,0,0,0)" d="m623.98 487.9h28.515v23.473h-28.515z" fill="#1a1a1a"/>
  <g fill="url(#a)">
   <path d="m-627.91-653.38h111.43v742.86h-111.43z"/>
   <path d="m-627.91 94.011h111.43l-20 171.43h-68.571z"/>
   <path d="m-592.19 269.97h40l-16.719 102.86s-16.702-78.512-23.281-102.86z"/>
   <path d="m-551.02-797.01c-15.668-13.971-29.383-10.355-42.348 0v137.93h42.348z"/>
   <g transform="matrix(.75036 0 0 1 -591.84 -340.1)">
    <path d="m146.57-312.35h28.515v285.15h-28.515z"/>
    <path transform="matrix(-.08788 -.65147 .43946 -.13027 362.83 169.19)" d="m472.53-405.97-83.215-17.132 56.445-63.5z"/>
   </g>
   <path transform="matrix(0,-1,-1,0,0,0)" d="m623.98 487.9h28.515v23.473h-28.515z"/>
  </g>
 </g>
</svg>
