<svg id="SvgjsSvg1001" width="288" height="288" xmlns="http://www.w3.org/2000/svg" version="1.1" xmlns:xlink="http://www.w3.org/1999/xlink" xmlns:svgjs="http://svgjs.com/svgjs"><defs id="SvgjsDefs1002"></defs><g id="SvgjsG1008" transform="matrix(1,0,0,1,0,0)"><svg xmlns="http://www.w3.org/2000/svg" xmlns:svgjs="http://svgjs.com/svgjs" xmlns:xlink="http://www.w3.org/1999/xlink" width="288" height="288"><svg xmlns="http://www.w3.org/2000/svg" width="288" height="288" enable-background="new 0 0 2653.646 1568.858" viewBox="0 0 2653.646 1568.858"><path fill="#252525" d="M2556.0864,1244.6478c-70.3679-53.485-149.0869-98.0038-232.3184-132.0687 c66.8994-61.3698,125.7397-130.8524,172.9395-204.1969l32.8374-58.1207l-62.5151-23.4155 c-84.4172-26.192-173.6143-41.1024-263.4778-44.6462c41.876-80.5499,73.4021-165.9664,92.6707-251.0311l10.978-65.8466 l-66.7522-0.6222c-88.2849,4.2603-177.2039,20.7565-262.8594,48.1615c11.8016-90.0146,12.212-181.0627,1.2245-267.5875 l-12.2039-65.6307l-62.9408,22.2462c-81.5027,34.1987-159.4174,80.1118-230.5344,135.16 c-19.6969-88.6223-50.4518-174.3201-90.3691-251.8687l-33.916-57.4985l-51.5344,42.4311 c-64.8926,60.0122-122.4036,129.8044-170.4049,205.8562c-48.8196-76.5406-107.0289-146.5516-171.0634-205.7707l-51.5359-42.4311 l-33.9146,57.4985c-40.4531,78.5875-70.6267,163.8407-89.7217,251.7233c-72.0537-55.2271-150.6984-101.1073-231.1254-134.854 l-62.9394-22.246l-12.2039,65.6305c-11.135,87.6837-10.3306,178.1153,1.7838,267.2288 c-86.5978-27.2524-176.1901-43.4678-263.3085-47.6718l-66.7534,0.6223l10.9793,65.8466 c19.5262,86.2042,51.2121,170.9067,93.0744,250.5024c-90.697,4.0093-180.4325,19.4147-263.7342,45.2605l-62.5151,23.4155 l32.8375,58.1207c47.8333,74.327,106.5771,143.0842,173.1391,203.5619c-83.8554,34.7875-162.9105,79.9553-232.3499,132.7334 l-50.7355,43.3845l50.7355,43.3844c178.2162,135.4559,409.8609,213.6942,633.2534,209.072 c217.2893-14.0143,433.1984-107.4668,596.011-252.4564c-167.2644,124.6909-389.1322,205.8348-598.4256,195.9215 c-179.2438-8.4901-363-84.7556-506.6033-195.915c56.8609-43.9746,119.4091-81.8383,185.4063-112.2946 c83.5661,62.593,176.1694,112.6226,273.1267,145.6572c208.978,61.1478,443.8292,47.1768,646.4119-33.384 c-199.8251,59.9633-436.0648,60.3304-629.3458-20.5675c-73.0992-30.5957-142.4931-73.9272-205.5592-125.9885 c68.7397-24.0874,140.0152-40.1345,211.5854-46.8248c1.4724,1.1996,2.9201,2.4336,4.3994,3.6232 c175.4601,128.9346,400.927,196.1301,618.8457,189.7148c-188.4821-10.8563-388.2878-77.7799-538.6652-195.7279 c86.1625,4.1453,172.5867,20.9232,255.5964,48.5588c86.2617,63.5916,182.489,113.8317,283.0138,147.1036 c-69.8361-30.071-138.2644-69.3524-201.7163-116.1034c71.8334,30.9564,139.9629,70.0618,201.7191,116.0731 c-0.0015,0.0101-0.0015,0.0201-0.0028,0.0303c0.0013-0.0094,0.0042-0.019,0.0055-0.0286c0.011,0.0079,0.0206,0.0155,0.0317,0.0234 c0.0055,0.0236,0.0123,0.047,0.0178,0.0706c-0.004-0.0219-0.0068-0.0436-0.011-0.0654c0.0083,0.0057,0.0151,0.011,0.0234,0.0167 c0.0206,0.0306,0.0413,0.0609,0.062,0.0916c-0.0151-0.0261-0.0289-0.052-0.0441-0.0781c0.0426,0.0314,0.0853,0.0616,0.1281,0.093 c-0.0482-0.0431-0.0991-0.0847-0.1473-0.1278c-0.0096-0.019-0.0208-0.0381-0.0317-0.0571 c-0.0027-0.0217-0.0068-0.0436-0.0096-0.0653c0.0042-0.0214,0.0083-0.0427,0.0125-0.064c0.011-0.0184,0.022-0.0376,0.0344-0.056 c0.0165-0.0134,0.0331-0.0273,0.0496-0.0408c0.0206-0.007,0.0414-0.0146,0.0634-0.0215c0.0206,0.0006,0.0427,0.0005,0.0647,0.0011 c0.0208,0.0082,0.0414,0.0155,0.0607,0.0237c162.9325,145.0583,379.0537,238.5728,596.5013,252.3779 c220.8073,9.2074,457.3307-75.8113,632.6654-209.0782l50.7368-43.3844L2556.0864,1244.6478z M2365.1235,910.0989 c-38.3926,60.7705-84.2175,117.7436-135.8181,168.9355c-70.1033-21.2112-142.2646-35.0604-214.4587-40.7123 c52.252-50.4709,98.9902-108.3439,139.2134-170.7853C2226.2336,874.0371,2297.6443,888.5082,2365.1235,910.0989z M1369.5258,1252.1953c66.4338-58.9708,125.511-127.3734,174.7988-202.1451c67.9147-54.0538,142.6653-99.059,221.2521-130.6365 c-46.6708,72.5455-104.4132,139.0026-169.8512,197.0735C1514.7241,1151.8799,1438.2213,1197.7036,1369.5258,1252.1953z M1528.2296,1171.3925c-62.726,46.7318-130.6571,86.1808-201.3816,116.6577c-0.0068-0.0048-0.0138-0.0094-0.0206-0.0143 c0.0316-0.024,0.0605-0.0496,0.0923-0.0739C1387.855,1242.5476,1456.0532,1202.9518,1528.2296,1171.3925z M1340.3094,965.9772 c17.2797-85.0616,45.6129-167.5862,85.5166-242.2908c10.8788,85.5725,9.3635,173.5973-3.4381,260.1453 c-39.3003,79.1789-68.449,163.4562-86.0468,249.3554C1349.3274,1145.3104,1350.6139,1054.9377,1340.3094,965.9772z M1449.7296,990.0272c45.3306-74.022,100.1804-141.8793,163.2273-198.4308c-19.0442,84.1328-50.5745,166.3309-92.2053,243.2812 c-64.011,60.9619-120.2258,130.187-166.1405,204.8868C1396.8673,1161.6288,1428.9872,1077.1466,1449.7296,990.0272z M1843.5477,897.7176c1.1901-1.8767,2.3264-3.7975,3.5015-5.6865c68.3953-18.6355,140.6198-27.7963,213.4669-28.3812 c-37.1736,62.6369-81.4587,120.7443-131.9849,171.874c-1.8981,0.0273-3.8016,0.0127-5.6984,0.052 c-81.8705,5.2803-163.5427,21.849-242.2549,48.1919C1742.8191,1028.6787,1798.0464,966.117,1843.5477,897.7176z M1960.2695,609.9788 c70.0441-18.5762,142.0964-29.4019,212.8926-32.1926c-15.292,70.2366-38.8691,139.4471-69.8484,205.2 c-73.131,4.0448-145.6779,15.7115-215.4506,35.0922C1919.7034,752.7795,1943.8287,682.4116,1960.2695,609.9788z M1879.118,331.1692 c9.6528,71.2311,11.1694,144.3313,4.5468,216.7145c-67.3361,28.8129-131.5178,64.5883-190.4545,106.6639 c7.5868-72.2505,6.1901-146.6261-3.1337-220.3141C1749.5422,392.8214,1813.5477,358.0051,1879.118,331.1692z M1678.8053,744.541 c0.4766-2.1707,0.8871-4.364,1.3458-6.541c57.8966-40.9042,122.6322-74.2147,190.887-99.6799 c-13.5096,71.5737-35.2506,141.3235-65.241,206.6503c-1.7755,0.6751-3.5675,1.312-5.3375,1.9979 c-75.1267,32.9633-146.2065,76.4662-211.1625,128.1419C1628.9431,902.0554,1659.4431,824.3777,1678.8053,744.541z M1625.2902,707.8865c-1.4366,1.2414-2.9036,2.453-4.3319,3.7026c-59.3224,56.6705-111.2356,121.8604-154.6006,192.6359 c12.2686-82.2087,14.3623-165.6334,5.2521-247.2779c-0.2948-2.2028-0.6598-4.4044-0.9724-6.6069 c40.4146-58.2391,89.8525-111.6816,145.281-158.9554C1627.7034,563.2627,1631.1304,636.2417,1625.2902,707.8865z M1518.4596,199.9937c33.4325,63.634,59.8608,131.807,78.3939,202.0901c-53.4215,50.1055-101.4958,105.6747-142.4875,165.3704 c-17.5826-70.4876-44.3334-139.9001-78.2975-205.9553C1417.7847,302.2456,1466.0216,247.6379,1518.4596,199.9937z M1408.7847,640.8064c-0.9257,1.6579-1.8884,3.298-2.8044,4.9609c-36.3622,73.5424-62.8484,152.5565-79.3911,233.8951 c-16.5881-81.447-43.1543-160.5568-79.6392-234.1613c-1.0303-1.9694-2.1267-3.9136-3.1736-5.876 c18.0579-68.5496,46.2369-135.6779,82.1543-199.0584C1361.5876,504.0792,1389.7682,571.4852,1408.7847,640.8064z M1326.6056,1288.2694c-0.0068-0.0126-0.0138-0.025-0.0206-0.0376c0.0068-0.0048,0.0123-0.0098,0.0179-0.0145 c0.0027,0.0127,0.0068,0.0256,0.0096,0.0383C1326.6097,1288.2601,1326.6084,1288.2649,1326.6056,1288.2694z M1326.6139,1288.2643 c0.0027,0.009,0.0055,0.0182,0.0083,0.0273c-0.0015,0.0016-0.0015,0.0034-0.0015,0.005c-0.0042-0.0074-0.0082-0.0148-0.0123-0.0222 C1326.6111,1288.2711,1326.6125,1288.2675,1326.6139,1288.2643z M1326.585,1288.2313c-0.0193-0.0356-0.0399-0.0709-0.0592-0.1066 c-34.142-67.8953-61.2935-141.9318-79.8389-218.49c35.1295,69.8877,62.1832,143.6367,79.916,218.5797 C1326.5959,1288.2202,1326.5905,1288.2257,1326.585,1288.2313z M1298.702,1239.9548 c-46.5399-75.6632-103.6432-145.719-168.719-207.2421c-41.4395-76.2682-72.781-157.6987-90.2328-240.5751 c63.3402,58.559,118.7589,126.9642,164.5854,201.4921C1225.1249,1079.5454,1256.9666,1162.8419,1298.702,1239.9548z M1229.2627,980.8018c-12.8555-85.8419-14.4559-173.0807-2.5096-256.9277c39.4917,76.6909,68.1735,159.9258,85.7451,245.6324 c-9.8499,87.8435-8.416,177.0066,4.427,263.7421C1299.0712,1146.2321,1269.3715,1060.8712,1229.2627,980.8018z M1134.6882,200.0816 c53.1804,48.3617,101.3306,103.3848,142.7838,163.0906c-33.062,65.355-59.2314,134.0152-77.3347,204.1307 c-40.6295-60.223-89.507-116.3001-144.0166-166.7552C1075.056,330.6,1101.7075,262.7873,1134.6882,200.0816z M1036.0492,491.9951 c55.23,47.4866,104.7657,101.1892,146.3442,159.8257c-0.303,1.8745-0.6473,3.7455-0.938,5.6211 c-9.0165,81.5437-6.8815,164.8516,5.3926,246.943c-43.4435-70.8618-95.4656-136.1143-154.9242-192.8013 c-1.642-1.4983-3.3362-2.9504-4.9918-4.4361C1020.4554,636.5555,1023.9761,563.838,1036.0492,491.9951z M974.4637,745.2047 c19.416,79.7099,49.916,157.2636,89.5261,230.2061c-65.0592-51.7295-136.2617-95.2546-211.5234-128.1866 c-2.0537-0.8464-4.1432-1.6315-6.208-2.4611c-30.2286-64.1199-51.792-133.6562-65.0179-205.2958 c68.1405,25.7332,133.0551,59.2554,192.1818,100.1346C973.7792,741.4669,974.0946,743.3429,974.4637,745.2047z M774.0891,331.422 c66.5151,27.2563,130.5798,62.4928,189.9545,104.4197c-8.7162,72.7216-9.8237,146.1916-2.854,218.27 c-58.7783-42.6946-123.8871-78.673-192.365-107.4421C762.6938,474.4643,764.545,401.626,774.0891,331.422z M694.3715,611.3281 c16.6818,71.3167,40.7686,140.735,71.9711,206.0825c-69.8361-20.0165-143.3237-31.5565-217.511-35.1699 c-30.4573-65.7538-53.6308-134.8325-68.6721-204.0673C551.9844,581.0368,624.2379,592.2369,694.3715,611.3281z M422.6745,1078.8472 c-51.1088-51.3713-96.511-108.3584-134.325-168.2732c68.4724-21.8748,140.1983-36.0623,212.6322-42.1095 c40.0675,61.3101,86.4449,118.3039,138.1157,169.0386C566.6276,1042.5789,493.6235,1056.8691,422.6745,1078.8472z M730.2255,1036.0621c-2.2218-0.0927-4.4518-0.1158-6.6763-0.1895c-50.3361-49.9137-94.3815-107.8815-131.3127-170.6771 c72.832,0.8759,145.2975,10.1739,214.8402,28.3655c0.9725,1.6307,1.9119,3.2855,2.894,4.9091 c45.5082,68.2619,100.6928,130.7071,162.8636,185.7031C894.0051,1057.8154,812.2103,1041.2672,730.2255,1036.0621z M1054.4445,1115.4482C989.4183,1057.953,932.118,992.1525,887.3728,920.243c79.5482,33.3645,155.0221,78.6894,223.5745,133.0496 c48.9187,73.6227,107.3291,141.004,172.9187,199.192C1214.2571,1197.3026,1136.6373,1151.0032,1054.4445,1115.4482z M1176.7393,1110.2288c56.9132,53.6581,107.5592,113.7067,149.854,178.0651c-0.0028,0.0072-0.007,0.0146-0.0096,0.0219 c-0.0304-0.027-0.062-0.053-0.0923-0.08C1271.1869,1236.1122,1220.3508,1175.8265,1176.7393,1110.2288z M1326.6152,1288.3441 c-0.0096-0.0096-0.0206-0.0184-0.0316-0.0281c0.004-0.0065,0.0082-0.0132,0.011-0.0198c0.0083,0.011,0.0151,0.0219,0.022,0.0328 C1326.6166,1288.3341,1326.6166,1288.3391,1326.6152,1288.3441z M1326.6387,1288.3604c0,0.0015,0,0.0029,0,0.0044 c-0.0055-0.0056-0.0125-0.0111-0.0193-0.0168c0.0013-0.0038,0.0028-0.0076,0.0028-0.0114 C1326.6277,1288.3446,1326.6332,1288.3522,1326.6387,1288.3604z M1326.6235,1288.2012c0.0027-0.0023,0.0055-0.0048,0.0083-0.0072 c-0.0015,0.0093-0.0015,0.0189-0.0028,0.0282c-0.0013,0.0012-0.0013,0.0029-0.0013,0.0042 C1326.6262,1288.2179,1326.6249,1288.2097,1326.6235,1288.2012z M1326.6332,1288.1852c-0.0042,0.0034-0.007,0.007-0.011,0.0104 c-0.0028-0.0142-0.0042-0.0281-0.007-0.0422c0.007-0.0023,0.0151-0.005,0.0221-0.0073 C1326.6359,1288.1591,1326.6345,1288.1721,1326.6332,1288.1852z M1326.6373,1288.1432c-0.007,0.0031-0.0151,0.0066-0.0221,0.0096 c-0.0055-0.0408-0.0123-0.0814-0.0193-0.1222c-8.8608-75.4773-9.0524-154.3346-0.2961-232.6182 C1335.4072,1133.1007,1335.6056,1211.6548,1326.6373,1288.1432z M1326.6593,1288.1592c0,0.0011-0.0013,0.0023-0.0027,0.0033 c0.0013-0.0083,0.0027-0.0165,0.0042-0.0248c0.004-0.0012,0.0082-0.0026,0.011-0.0038 C1326.6676,1288.1422,1326.6635,1288.151,1326.6593,1288.1592z M1326.6759,1288.126c-0.0042,0.0021-0.0096,0.0039-0.0138,0.006 c0.0027-0.014,0.0055-0.0278,0.0083-0.042c0.0082,0.0004,0.0151,0,0.0233,0.0004 C1326.6882,1288.1021,1326.6814,1288.1143,1326.6759,1288.126z M1326.6704,1288.0895c0.0082-0.0386,0.0151-0.0776,0.0233-0.1163 c17.4877-73.958,44.2783-148.127,79.2823-218.6962c-18.0123,76.1179-44.6927,150.0026-79.2809,218.8108 C1326.6869,1288.0881,1326.6786,1288.0891,1326.6704,1288.0895z M1326.7103,1288.111c-0.0015,0.0006-0.0028,0.0012-0.0042,0.0017 c0.0042-0.0072,0.0083-0.0145,0.0123-0.0219c0.0042,0.0002,0.0083,0,0.0125,0.0002 C1326.7241,1288.0975,1326.7172,1288.1045,1326.7103,1288.111z M1326.7378,1288.085c-0.0055,0.0004-0.011,0.0006-0.0151,0.0009 c0.007-0.0122,0.0138-0.0244,0.0221-0.0366c0.0068,0.0029,0.0138,0.0054,0.0206,0.0083 C1326.7557,1288.0664,1326.7461,1288.076,1326.7378,1288.085z M1326.7448,1288.0488c0.0206-0.0333,0.0399-0.0679,0.0605-0.1012 c41.7286-63.5167,92.2714-124.0502,149.3003-178.3916c-42.9601,65.3673-93.3016,125.671-149.3374,178.4995 C1326.7599,1288.0531,1326.7516,1288.0513,1326.7448,1288.0488z M1326.775,1288.0824c-0.0013,0-0.0042,0.0004-0.0055,0.0004 c0.0068-0.0054,0.0138-0.0106,0.0206-0.016c0.0028,0.0013,0.007,0.0027,0.011,0.0042 C1326.7915,1288.0747,1326.7833,1288.0786,1326.775,1288.0824z M1326.7943,1288.0631c0.011-0.0088,0.0221-0.0182,0.0331-0.027 c0.0055,0.005,0.0123,0.0103,0.0179,0.0153c-0.0125,0.0052-0.0249,0.0109-0.0372,0.016 C1326.804,1288.066,1326.7985,1288.0646,1326.7943,1288.0631z M1326.8439,1288.0778c-0.0013-0.0004-0.0027-0.001-0.0042-0.0013 c0.0083-0.0028,0.0166-0.0055,0.0249-0.0083c0.0027,0.0026,0.0055,0.005,0.0082,0.0076 C1326.8632,1288.0762,1326.8535,1288.0773,1326.8439,1288.0778z M1326.8701,1288.0664 c101.6088-33.6632,198.8457-84.6514,285.8168-149.2588c82.3058-27.5664,167.9408-44.2908,252.5881-47.0859 c-152.8499,116.2106-347.0083,185.2859-538.3939,196.3535C1326.877,1288.0723,1326.8741,1288.0693,1326.8701,1288.0664z M1326.9114,1288.0972c-0.0013-0.0009-0.0027-0.0018-0.0027-0.0027c218.0193,6.3633,443.639-60.9181,619.0564-190.0928 c1.7604-1.3564,3.4849-2.7729,5.2356-4.1459c70.6432,5.8807,141.646,21.9744,210.3003,46.3402 c-71.2148,58.3116-150.6172,105.9733-234.8829,138.8738C1736.7434,1344.7362,1519.4734,1345.8416,1326.9114,1288.0972z M1893.5946,1484.7672c-200.8857-3.2351-405.4338-76.5088-566.635-196.6349c202.697,80.5487,437.7245,94.4923,646.7452,33.1035 c97.0083-30.7957,190.2893-81.5469,274.3691-145.3933c65.5977,30.7931,127.752,68.8149,183.7781,112.1832 C2279.0559,1406.1923,2085.2434,1480.3269,1893.5946,1484.7672z" class="color000 svgShape color2aa3b4"></path></svg></svg></g></svg>