<svg id="SvgjsSvg1017" width="288" height="288" xmlns="http://www.w3.org/2000/svg" version="1.1" xmlns:xlink="http://www.w3.org/1999/xlink" xmlns:svgjs="http://svgjs.com/svgjs"><defs id="SvgjsDefs1018"></defs><g id="SvgjsG1019"><svg xmlns="http://www.w3.org/2000/svg" width="288" height="288" viewBox="0 0 24 24"><path d="M17 3h-10c-1.654 0-3 1.346-3 3v12c0 1.654 1.346 3 3 3h10c1.654 0 3-1.346 3-3v-12c0-1.654-1.346-3-3-3zM9 5h6v1c0 0.551-0.449 1-1 1h-4c-0.551 0-1-0.449-1-1v-1zM18 18c0 0.551-0.449 1-1 1h-10c-0.551 0-1-0.449-1-1v-12c0-0.551 0.449-1 1-1h1c0 0.262 0 0.601 0 1 0 1.1 0.9 2 2 2h4c1.1 0 2-0.9 2-2 0-0.399 0-0.738 0-1h1c0.551 0 1 0.449 1 1v12z" fill="#323232" class="color000 svgShape"></path><path d="M16 17h-8c-.276 0-.5-.224-.5-.5s.224-.5.5-.5h8c.276 0 .5.224.5.5s-.224.5-.5.5zM16 14h-8c-.276 0-.5-.224-.5-.5s.224-.5.5-.5h8c.276 0 .5.224.5.5s-.224.5-.5.5zM16 11h-8c-.276 0-.5-.224-.5-.5s.224-.5.5-.5h8c.276 0 .5.224.5.5s-.224.5-.5.5z" fill="#323232" class="color000 svgShape"></path></svg></g></svg>