<svg id="SvgjsSvg1060" width="288" height="288" xmlns="http://www.w3.org/2000/svg" version="1.1" xmlns:xlink="http://www.w3.org/1999/xlink" xmlns:svgjs="http://svgjs.com/svgjs"><defs id="SvgjsDefs1061"></defs><g id="SvgjsG1062"><svg xmlns="http://www.w3.org/2000/svg" width="288" height="288" viewBox="0 0 24 24"><path d="M8 19h-3v-10h3v10zM19 19h-3v-5.342c0-1.392-.496-2.085-1.479-2.085-.779 0-1.273.388-1.521 1.165 0 1.262 0 6.262 0 6.262h-3c0 0 .04-9 0-10h2.368l.183 2h.062c.615-1 1.598-1.678 2.946-1.678 1.025 0 1.854.285 2.487 1.001.637.717.954 1.679.954 3.03v5.647zM8.05 6.5c0 .828-.694 1.5-1.55 1.5s-1.55-.672-1.55-1.5c0-.828.694-1.5 1.55-1.5s1.55.672 1.55 1.5z" fill="#323232" class="color000 svgShape"></path></svg></g></svg>