<svg id="SvgjsSvg1029" width="288" height="288" xmlns="http://www.w3.org/2000/svg" version="1.1" xmlns:xlink="http://www.w3.org/1999/xlink" xmlns:svgjs="http://svgjs.com/svgjs"><defs id="SvgjsDefs1030"></defs><g id="SvgjsG1031"><svg xmlns="http://www.w3.org/2000/svg" width="288" height="288" viewBox="0 0 24 24"><path d="M19.232 10.92c-2.389-2.011-6.727-5.758-6.77-5.797l-0.462-0.397-0.459 0.397c-0.044 0.037-4.384 3.783-6.808 5.813-0.309 0.278-0.485 0.666-0.485 1.063 0 0.778 0.631 1.41 1.41 1.41h0.705v4.228c0 0.778 0.631 1.41 1.41 1.41h8.457c0.778 0 1.41-0.631 1.41-1.41v-4.228h0.705c0.778 0 1.41-0.631 1.41-1.41 0-0.421-0.194-0.818-0.52-1.080zM13.41 17.638h-2.819v-3.524h2.819v3.524zM16.228 12l0.001 5.638c-0.001 0-2.116 0-2.116 0v-4.228h-4.228v4.228h-2.114v-5.638h-2.115c1.949-1.629 5.155-4.388 6.343-5.412 1.188 1.024 4.393 3.782 6.343 5.413 0 0-2.114 0-2.114-0.001z" fill="#323232" class="color000 svgShape"></path></svg></g></svg>