<svg id="SvgjsSvg1006" width="288" height="288" xmlns="http://www.w3.org/2000/svg" version="1.1" xmlns:xlink="http://www.w3.org/1999/xlink" xmlns:svgjs="http://svgjs.com/svgjs"><defs id="SvgjsDefs1007"></defs><g id="SvgjsG1008" transform="matrix(1,0,0,1,0,0)"><svg xmlns="http://www.w3.org/2000/svg" width="288" height="288" viewBox="0 0 24 24"><path d="M8.171 18c-.512 0-1.023-.195-1.414-.586l-4.414-4.414 4.414-4.414c.781-.781 2.049-.781 2.828 0 .781.781.781 2.047 0 2.828l-1.585 1.586 1.585 1.586c.781.781.781 2.047 0 2.828-.39.391-.902.586-1.414.586zM15.829 18c-.512 0-1.024-.195-1.414-.586-.781-.781-.781-2.047 0-2.828l1.585-1.586-1.585-1.586c-.781-.781-.781-2.047 0-2.828.779-.781 2.047-.781 2.828 0l4.414 4.414-4.414 4.414c-.39.391-.902.586-1.414.586z" fill="#323232" class="color000 svgShape"></path></svg></g></svg>