<svg aria-hidden="true" style="position: absolute; width: 0; height: 0; overflow: hidden;" version="1.1" xmlns="http://www.w3.org/2000/svg" xmlns:xlink="http://www.w3.org/1999/xlink">
<defs>
<symbol id="icon-code" viewBox="0 0 24 24">
<path d="M8.171 18c-0.512 0-1.023-0.195-1.414-0.586l-4.414-4.414 4.414-4.414c0.781-0.781 2.049-0.781 2.828 0 0.781 0.781 0.781 2.047 0 2.828l-1.585 1.586 1.585 1.586c0.781 0.781 0.781 2.047 0 2.828-0.39 0.391-0.902 0.586-1.414 0.586z"></path>
<path d="M15.829 18c-0.512 0-1.024-0.195-1.414-0.586-0.781-0.781-0.781-2.047 0-2.828l1.585-1.586-1.585-1.586c-0.781-0.781-0.781-2.047 0-2.828 0.779-0.781 2.047-0.781 2.828 0l4.414 4.414-4.414 4.414c-0.39 0.391-0.902 0.586-1.414 0.586z"></path>
</symbol>
<symbol id="icon-social-facebook" viewBox="0 0 24 24">
<path d="M13 10h3v3h-3v7h-3v-7h-3v-3h3v-1.255c0-1.189 0.374-2.691 1.118-3.512 0.744-0.823 1.673-1.233 2.786-1.233h2.096v3h-2.1c-0.498 0-0.9 0.402-0.9 0.899v2.101z"></path>
</symbol>
<symbol id="icon-social-linkedin" viewBox="0 0 24 24">
<path d="M8 19h-3v-10h3v10zM19 19h-3v-5.342c0-1.392-0.496-2.085-1.479-2.085-0.779 0-1.273 0.388-1.521 1.165 0 1.262 0 6.262 0 6.262h-3c0 0 0.040-9 0-10h2.368l0.183 2h0.062c0.615-1 1.598-1.678 2.946-1.678 1.025 0 1.854 0.285 2.487 1.001 0.637 0.717 0.954 1.679 0.954 3.030v5.647z"></path>
<path d="M8.050 6.5c0 0.828-0.694 1.5-1.55 1.5s-1.55-0.672-1.55-1.5c0-0.828 0.694-1.5 1.55-1.5s1.55 0.672 1.55 1.5z"></path>
</symbol>
<symbol id="icon-at" viewBox="0 0 24 24">
<path d="M12 4c-4.411 0-8 3.589-8 8s3.589 8 8 8c1.616 0 3.172-0.479 4.499-1.384 0.456-0.312 0.574-0.934 0.263-1.39-0.311-0.457-0.932-0.572-1.39-0.263-0.994 0.679-2.16 1.037-3.372 1.037-3.309 0-6-2.691-6-6s2.691-6 6-6 6 2.691 6 6v0.5c0 0.552-0.448 1-1 1s-1-0.448-1-1v-3c0-0.553-0.447-1-1-1-0.441 0-0.805 0.29-0.938 0.688-0.58-0.427-1.289-0.688-2.062-0.688-1.93 0-3.5 1.57-3.5 3.5s1.57 3.5 3.5 3.5c1.045 0 1.975-0.47 2.616-1.199 0.548 0.723 1.408 1.199 2.384 1.199 1.654 0 3-1.346 3-3v-0.5c0-4.411-3.589-8-8-8zM12 13.5c-0.827 0-1.5-0.673-1.5-1.5s0.673-1.5 1.5-1.5 1.5 0.673 1.5 1.5-0.673 1.5-1.5 1.5z"></path>
</symbol>
<symbol id="icon-home-outline" viewBox="0 0 24 24">
<path d="M22.262 10.468c-3.39-2.854-9.546-8.171-9.607-8.225l-0.655-0.563-0.652 0.563c-0.062 0.053-6.221 5.368-9.66 8.248-0.438 0.394-0.688 0.945-0.688 1.509 0 1.104 0.896 2 2 2h1v6c0 1.104 0.896 2 2 2h12c1.104 0 2-0.896 2-2v-6h1c1.104 0 2-0.896 2-2 0-0.598-0.275-1.161-0.738-1.532zM14 20h-4v-5h4v5zM18 12l0.002 8c-0.002 0-3.002 0-3.002 0v-6h-6v6h-3v-8h-3.001c2.765-2.312 7.315-6.227 9.001-7.68 1.686 1.453 6.234 5.367 9 7.681 0 0-3 0-3-0.001z"></path>
</symbol>
<symbol id="icon-mail" viewBox="0 0 24 24">
<path d="M19 7h-14c-1.104 0-2 0.896-2 2v9c0 1.104 0.896 2 2 2h14c1.104 0 2-0.896 2-2v-9c0-1.104-0.896-2-2-2zM9.316 14.316l1.602 1.4c0.305 0.266 0.691 0.398 1.082 0.398s0.777-0.133 1.082-0.398l1.602-1.4-0.037 0.037 3.646 3.646h-12.586l3.646-3.646-0.037-0.037zM5 17.293v-6.753l3.602 3.151-3.602 3.602zM15.398 13.691l3.602-3.151v6.75l-3.602-3.599zM19 9v0.21l-6.576 5.754c-0.227 0.198-0.621 0.198-0.848 0l-6.576-5.754v-0.21h14z"></path>
</symbol>
<symbol id="icon-user-outline" viewBox="0 0 24 24">
<path d="M12 6c1.654 0 3 1.346 3 3s-1.346 3-3 3-3-1.346-3-3 1.346-3 3-3M12 4c-2.764 0-5 2.238-5 5s2.236 5 5 5 5-2.238 5-5-2.236-5-5-5z"></path>
<path d="M12 17c2.021 0 3.301 0.771 3.783 1.445-0.683 0.26-1.969 0.555-3.783 0.555-1.984 0-3.206-0.305-3.818-0.542 0.459-0.715 1.777-1.458 3.818-1.458M12 15c-3.75 0-6 2-6 4 0 1 2.25 2 6 2 3.518 0 6-1 6-2s-2.354-4-6-4z"></path>
</symbol>
<symbol id="icon-download-outline" viewBox="0 0 24 24">
<path d="M20.986 17c0-0.105-0.004-0.211-0.038-0.316l-2-6c-0.136-0.409-0.516-0.684-0.948-0.684h-0.561l0.682-0.678c1.17-1.17 1.17-3.072 0-4.242-0.81-0.812-2.068-1.078-3.121-0.709v-1.371c0-1.654-1.346-3-3-3s-3 1.346-3 3v1.371c-1.052-0.369-2.311-0.103-3.121 0.709-1.17 1.17-1.17 3.072 0.002 4.244l0.68 0.676h-0.561c-0.432 0-0.812 0.275-0.948 0.684l-2 6c-0.034 0.105-0.038 0.211-0.038 0.316-0.014 0-0.014 5-0.014 5 0 0.553 0.447 1 1 1h16c0.553 0 1-0.447 1-1 0 0 0-5-0.014-5zM7.293 6.494c0.189-0.187 0.439-0.293 0.707-0.293s0.518 0.104 0.707 0.293l2.293 2.293v-5.787c0-0.552 0.448-1 1-1s1 0.448 1 1v5.787l2.293-2.293c0.379-0.377 1.035-0.377 1.414 0 0.391 0.39 0.391 1.023 0.002 1.412l-4.709 4.684-4.707-4.682c-0.391-0.388-0.391-1.024 0-1.414zM6.721 12h1.852l3.429 3.41 3.428-3.41h1.852l1.667 5h-13.894l1.666-5zM19 21h-14v-3h14v3z"></path>
</symbol>
<symbol id="icon-directions" viewBox="0 0 24 24">
<path d="M20.908 9.5l-2.754-2.607c-0.568-0.541-1.447-0.893-2.237-0.893h-2.917v-0.5c0-0.828-0.672-1.5-1.5-1.5s-1.5 0.672-1.5 1.5v0.5h-3.5c-1.93 0-3.5 1.57-3.5 3.5 0 1.396 0.828 2.596 2.016 3.157l-1.844 1.843 2.561 2.561c0.57 0.57 1.46 0.939 2.268 0.939h2.2l0.8 4h1l0.8-4h2.7c1.931 0 3.5-1.57 3.5-3.5 0-0.902-0.353-1.718-0.915-2.339 0.021-0.021 0.051-0.035 0.072-0.056l2.75-2.605zM15.5 16h-7.5c-0.275 0-0.658-0.158-0.854-0.354l-1.146-1.146 1.146-1.146c0.195-0.195 0.577-0.354 0.854-0.354h7.5c0.828 0 1.5 0.672 1.5 1.5s-0.672 1.5-1.5 1.5zM16.779 10.656c-0.199 0.19-0.586 0.344-0.862 0.344h-9.417c-0.828 0-1.5-0.672-1.5-1.5s0.672-1.5 1.5-1.5h9.417c0.276 0 0.663 0.154 0.862 0.344l1.221 1.156-1.221 1.156z"></path>
</symbol>
<symbol id="icon-pencil" viewBox="0 0 24 24">
<path d="M21 6.879l-3.879-3.879c-0.293-0.293-0.678-0.439-1.061-0.439-0.384 0-0.767 0.146-1.060 0.439l-10.939 10.939c-0.293 0.293-0.558 0.727-0.75 1.188-0.192 0.463-0.311 0.959-0.311 1.373v4.5h4.5c0.414 0 0.908-0.119 1.371-0.311s0.896-0.457 1.189-0.75l10.94-10.939c0.293-0.293 0.439-0.678 0.439-1.061 0-0.384-0.146-0.767-0.439-1.060zM5.768 15.061l8.293-8.293 1.232 1.232-8.293 8.293-1.232-1.232zM7.5 19h-1.5l-1-1v-1.5c0-0.077 0.033-0.305 0.158-0.605 0.010-0.020 2.967 2.938 2.967 2.938-0.322 0.134-0.548 0.167-0.625 0.167zM8.939 18.232l-1.232-1.232 8.293-8.293 1.232 1.232-8.293 8.293zM17.939 9.232l-3.172-3.172 1.293-1.293 3.17 3.172-1.291 1.293z"></path>
</symbol>
<symbol id="icon-lightbulb" viewBox="0 0 24 24">
<path d="M12.5 5.5c-0.276 0-0.5 0.224-0.5 0.5s0.224 0.5 0.5 0.5c1.083 0 1.964 0.881 1.964 1.964 0 0.276 0.224 0.5 0.5 0.5s0.5-0.224 0.5-0.5c0-1.634-1.33-2.964-2.964-2.964z"></path>
<path d="M12.5 1c-4.136 0-7.5 3.364-7.5 7.5 0 1.486 0.44 2.922 1.274 4.165 0.023 0.047 0.049 0.092 0.080 0.135 1.825 2.606 2.146 3.43 2.146 4.2v3c0 0.552 0.448 1 1 1h2c0 0.26 0.11 0.52 0.29 0.71 0.19 0.18 0.45 0.29 0.71 0.29s0.52-0.11 0.71-0.29c0.18-0.19 0.29-0.45 0.29-0.71h2c0.552 0 1-0.448 1-1v-3c0-0.782 0.319-1.61 2.132-4.199 0.895-1.275 1.368-2.762 1.368-4.301 0-4.136-3.364-7.5-7.5-7.5zM14.5 19h-4v-1h4v1zM16.995 11.653c-1.466 2.093-2.143 3.289-2.385 4.347h-1.11v-2c0-0.552-0.448-1-1-1s-1 0.448-1 1v2h-1.113c-0.24-1.030-0.898-2.2-2.306-4.22-0.022-0.044-0.048-0.087-0.077-0.129-0.657-0.934-1.004-2.024-1.004-3.151 0-3.033 2.467-5.5 5.5-5.5s5.5 2.467 5.5 5.5c0 1.126-0.347 2.216-1.005 3.153z"></path>
</symbol>
</defs>
</svg>
